<svg xmlns="http://www.w3.org/2000/svg" xmlns:xlink="http://www.w3.org/1999/xlink" preserveAspectRatio="xMidYMid" width="73" height="73" viewBox="0 0 73 73">
  <defs>
    <style>
      .cls-1 {
        fill: #000;
        fill-rule: evenodd;
      }
    </style>
  </defs>
  <path d="M73.000,33.573 C73.000,30.000 70.419,27.017 67.024,26.392 L52.512,9.599 C52.543,9.321 52.560,9.037 52.560,8.750 C52.560,4.725 49.285,1.449 45.260,1.449 C42.880,1.449 40.762,2.594 39.429,4.363 L25.909,5.599 C24.921,2.470 22.064,0.168 18.618,0.018 C18.376,-0.016 18.100,-0.016 17.906,0.020 C13.596,0.204 10.220,3.719 10.220,8.019 L10.220,15.298 C4.164,19.006 -0.000,26.457 -0.000,33.743 C-0.000,34.097 0.130,34.441 0.364,34.707 C0.786,35.189 4.880,39.414 18.250,39.414 C31.758,39.414 35.744,35.170 36.154,34.685 C36.377,34.422 36.500,34.087 36.500,33.741 C36.500,26.455 32.336,19.005 26.280,15.298 L26.280,14.369 L39.453,13.168 C40.787,14.918 42.893,16.050 45.260,16.050 C45.662,16.050 46.056,16.018 46.439,15.956 L59.042,30.582 C58.630,31.496 58.400,32.508 58.400,33.573 C58.400,34.905 58.758,36.155 59.384,37.232 L43.576,61.317 L33.371,61.317 C29.461,61.317 26.280,64.592 26.280,68.618 L26.280,71.539 C26.280,72.346 26.934,72.999 27.740,72.999 L67.160,72.999 C67.967,72.999 68.620,72.346 68.620,71.539 L68.620,68.618 C68.620,64.592 65.439,61.317 61.528,61.317 L54.017,61.317 L67.474,40.656 C70.645,39.862 73.000,36.987 73.000,33.573 ZM13.140,8.019 C13.140,5.287 15.289,3.055 18.056,2.935 C18.137,2.930 18.217,2.921 18.202,2.909 C18.251,2.916 18.420,2.934 18.469,2.936 C20.970,3.045 22.977,4.910 23.311,7.311 C23.314,7.344 23.319,7.375 23.324,7.409 C23.348,7.608 23.360,7.813 23.360,8.019 L23.360,13.018 C23.360,13.029 23.360,13.039 23.360,13.050 L23.360,15.809 C20.170,16.131 16.324,16.131 13.140,15.809 L13.140,8.019 ZM33.567,33.101 C32.389,34.007 28.241,36.494 18.250,36.494 C8.255,36.494 4.108,34.005 2.933,33.103 C3.157,27.492 6.301,21.685 10.757,18.450 C13.019,18.796 15.536,18.971 18.250,18.971 C20.960,18.971 23.478,18.797 25.744,18.450 C30.200,21.684 33.343,27.490 33.567,33.101 ZM26.280,11.436 L26.280,8.499 L38.081,7.419 C38.001,7.850 37.960,8.295 37.960,8.750 C37.960,9.301 38.021,9.839 38.138,10.356 L26.280,11.436 ZM45.260,13.130 C43.649,13.130 42.237,12.255 41.477,10.956 C41.462,10.926 41.445,10.897 41.427,10.869 C41.080,10.241 40.880,9.518 40.880,8.750 C40.880,7.941 41.101,7.183 41.485,6.531 C41.496,6.514 41.507,6.495 41.517,6.475 C42.287,5.213 43.677,4.369 45.260,4.369 C47.675,4.369 49.640,6.335 49.640,8.750 C49.640,9.059 49.608,9.360 49.547,9.649 C49.536,9.691 49.526,9.732 49.519,9.773 C49.057,11.698 47.323,13.130 45.260,13.130 ZM49.315,14.819 C50.130,14.271 50.830,13.565 51.368,12.743 L63.386,26.648 C62.421,26.972 61.547,27.491 60.808,28.159 L49.315,14.819 ZM61.528,64.238 C63.828,64.238 65.700,66.203 65.700,68.618 L65.700,70.078 L29.200,70.078 L29.200,68.618 C29.200,66.203 31.071,64.238 33.371,64.238 L44.342,64.238 C44.356,64.238 44.370,64.238 44.385,64.238 L51.301,64.238 C51.315,64.238 51.328,64.238 51.345,64.238 L61.528,64.238 ZM50.532,61.317 L47.069,61.317 L61.406,39.474 C62.167,40.028 63.038,40.441 63.981,40.669 L50.532,61.317 ZM66.349,37.906 C66.136,37.939 65.920,37.954 65.700,37.954 C63.285,37.954 61.320,35.989 61.320,33.573 C61.320,31.158 63.285,29.193 65.700,29.193 C65.824,29.193 65.947,29.198 66.066,29.208 C66.112,29.214 66.158,29.219 66.203,29.221 C68.382,29.471 70.080,31.328 70.080,33.573 C70.080,35.757 68.473,37.573 66.380,37.901 C66.370,37.902 66.359,37.904 66.349,37.906 Z" class="cls-1"/>
</svg>
