<svg xmlns="http://www.w3.org/2000/svg" xmlns:xlink="http://www.w3.org/1999/xlink" preserveAspectRatio="xMidYMid" width="81" height="81" viewBox="0 0 81 81">
  <defs>
    <style>
      .cls-1 {
        fill: #000;
        fill-rule: evenodd;
      }
    </style>
  </defs>
  <path d="M40.500,-0.001 C18.168,-0.001 0.000,18.167 0.000,40.499 C0.000,62.831 18.168,80.998 40.500,80.998 C62.832,80.998 81.000,62.831 81.000,40.499 C81.000,18.167 62.832,-0.001 40.500,-0.001 ZM42.120,77.718 L42.120,76.138 C42.120,75.243 41.395,74.519 40.500,74.519 C39.606,74.519 38.880,75.243 38.880,76.138 L38.880,77.718 C19.622,76.889 4.110,61.378 3.281,42.119 L4.860,42.119 C5.755,42.119 6.480,41.394 6.480,40.499 C6.480,39.604 5.755,38.880 4.860,38.880 L3.281,38.880 C4.110,19.621 19.622,4.109 38.880,3.280 L38.880,4.859 C38.880,5.754 39.606,6.478 40.500,6.478 C41.395,6.478 42.120,5.754 42.120,4.859 L42.120,3.280 C61.379,4.109 76.890,19.621 77.719,38.880 L76.140,38.880 C75.245,38.880 74.520,39.604 74.520,40.499 C74.520,41.394 75.245,42.119 76.140,42.119 L77.719,42.119 C76.890,61.378 61.379,76.889 42.120,77.718 ZM60.078,18.809 L35.548,35.122 C35.380,35.234 35.235,35.379 35.124,35.547 L18.807,60.078 C18.405,60.682 18.485,61.488 18.999,62.002 C19.293,62.295 19.684,62.448 20.078,62.448 C20.369,62.448 20.664,62.364 20.922,62.193 L45.453,45.876 C45.621,45.763 45.767,45.619 45.879,45.451 L62.193,20.924 C62.595,20.319 62.514,19.514 62.002,19.000 C61.486,18.487 60.682,18.407 60.078,18.809 ZM37.493,37.491 L37.494,37.491 L43.509,43.506 L25.547,55.453 L37.493,37.491 Z" class="cls-1"/>
</svg>
