<svg xmlns="http://www.w3.org/2000/svg" xmlns:xlink="http://www.w3.org/1999/xlink" preserveAspectRatio="xMidYMid" width="67" height="67" viewBox="0 0 67 67">
  <defs>
    <style>
      .cls-1 {
        fill: #fff;
        filter: url(#color-overlay-1);
        fill-rule: evenodd;
      }

      .cls-2 {
        stroke: #000;
        stroke-width: 2px;
        fill: none;
      }
    </style>

    <filter id="color-overlay-1" filterUnits="userSpaceOnUse">
      <feFlood/>
      <feComposite operator="in" in2="SourceGraphic"/>
      <feBlend in2="SourceGraphic" result="solidFill"/>
    </filter>
  </defs>
  <g>
    <path d="M32.500,49.999 C16.833,49.999 9.000,32.499 9.000,32.499 C9.000,32.499 16.833,14.999 32.500,14.999 C49.146,14.999 56.000,32.499 56.000,32.499 C56.000,32.499 48.167,49.999 32.500,49.999 ZM32.500,16.944 C20.104,16.944 12.885,29.224 11.182,32.497 C12.889,35.762 20.139,48.055 32.500,48.055 C44.955,48.055 52.184,35.656 53.842,32.456 C52.339,29.260 45.686,16.944 32.500,16.944 ZM32.500,38.333 C29.255,38.333 26.625,35.720 26.625,32.499 C26.625,32.034 26.686,31.581 26.790,31.147 C27.168,31.384 27.613,31.527 28.094,31.527 C29.446,31.527 30.542,30.439 30.542,29.096 C30.542,28.401 30.244,27.778 29.773,27.336 C30.588,26.908 31.515,26.665 32.500,26.665 C35.744,26.665 38.375,29.277 38.375,32.499 C38.375,35.720 35.744,38.333 32.500,38.333 ZM32.500,28.610 C32.491,28.610 32.481,28.610 32.472,28.610 C32.490,28.771 32.500,28.933 32.500,29.096 C32.500,31.305 30.842,33.138 28.696,33.430 C29.118,35.126 30.663,36.388 32.500,36.388 C34.660,36.388 36.417,34.643 36.417,32.499 C36.417,30.354 34.660,28.610 32.500,28.610 Z" class="cls-1"/>
    <rect x="5" y="5" width="61" height="61" class="cls-2"/>
    <rect x="1" y="1" width="61" height="61" class="cls-2"/>
  </g>
</svg>
