<svg xmlns="http://www.w3.org/2000/svg" xmlns:xlink="http://www.w3.org/1999/xlink" preserveAspectRatio="xMidYMid" width="77.1" height="77" viewBox="0 0 77.1 77">
  <defs>
    <style>
      .cls-1 {
        fill: #000;
        fill-rule: evenodd;
      }
    </style>
  </defs>
  <path d="M38.561,27.729 C32.610,27.729 27.768,32.564 27.768,38.508 C27.768,44.452 32.610,49.288 38.561,49.288 C44.513,49.288 49.355,44.452 49.355,38.508 C49.355,32.564 44.513,27.729 38.561,27.729 ZM38.561,46.209 C34.311,46.209 30.852,42.754 30.852,38.508 C30.852,34.263 34.311,30.809 38.561,30.809 C42.812,30.809 46.271,34.263 46.271,38.508 C46.271,42.754 42.812,46.209 38.561,46.209 ZM75.817,32.300 L67.588,30.957 C66.891,28.278 65.823,25.718 64.403,23.322 L69.211,16.482 C69.642,15.868 69.570,15.036 69.040,14.508 L62.498,7.975 C61.965,7.441 61.122,7.375 60.508,7.813 L53.727,12.679 C51.320,11.265 48.755,10.202 46.076,9.510 L44.633,1.285 C44.504,0.548 43.862,0.010 43.114,0.010 L33.862,0.010 C33.106,0.010 32.462,0.557 32.340,1.303 L30.996,9.525 C28.348,10.214 25.806,11.267 23.419,12.665 L16.606,7.805 C15.991,7.367 15.153,7.437 14.619,7.968 L8.075,14.502 C7.546,15.029 7.473,15.861 7.902,16.472 L12.710,23.333 C11.299,25.723 10.237,28.270 9.542,30.931 L1.301,32.301 C0.557,32.424 0.012,33.067 0.012,33.819 L0.012,43.059 C0.012,43.807 0.549,44.446 1.285,44.575 L9.527,46.034 C10.218,48.691 11.275,51.237 12.681,53.631 L7.812,60.428 C7.374,61.041 7.443,61.881 7.976,62.413 L14.517,68.945 C15.045,69.471 15.878,69.544 16.491,69.117 L23.358,64.320 C25.745,65.728 28.296,66.788 30.966,67.484 L32.341,75.720 C32.464,76.462 33.108,77.006 33.862,77.006 L43.114,77.006 C43.862,77.006 44.502,76.471 44.632,75.736 L46.094,67.502 C48.788,66.806 51.363,65.737 53.773,64.314 L60.630,69.116 C61.243,69.547 62.077,69.474 62.605,68.945 L69.145,62.413 C69.680,61.879 69.747,61.037 69.306,60.426 L64.429,53.655 C65.844,51.254 66.907,48.694 67.599,46.019 L75.836,44.576 C76.573,44.447 77.111,43.807 77.111,43.059 L77.111,33.819 C77.111,33.064 76.563,32.422 75.817,32.300 ZM74.027,41.766 L66.069,43.158 C65.454,43.266 64.965,43.734 64.829,44.344 C64.159,47.373 62.964,50.251 61.277,52.897 C60.938,53.430 60.958,54.113 61.327,54.624 L66.037,61.162 L61.340,65.853 L54.715,61.213 C54.204,60.854 53.525,60.837 53.000,61.176 C50.349,62.865 47.461,64.063 44.418,64.737 C43.809,64.872 43.343,65.359 43.234,65.971 L41.822,73.926 L35.168,73.926 L33.841,65.974 C33.738,65.354 33.269,64.861 32.656,64.724 C29.630,64.048 26.762,62.857 24.133,61.181 C23.607,60.845 22.932,60.860 22.420,61.217 L15.783,65.854 L11.081,61.159 L15.783,54.595 C16.148,54.085 16.167,53.404 15.831,52.875 C14.155,50.232 12.965,47.367 12.295,44.360 C12.160,43.752 11.672,43.285 11.059,43.178 L3.096,41.769 L3.096,35.124 L11.053,33.801 C11.672,33.699 12.168,33.231 12.305,32.618 C12.980,29.605 14.174,26.740 15.854,24.104 C16.189,23.579 16.174,22.903 15.817,22.394 L11.170,15.766 L15.876,11.069 L22.454,15.763 C22.965,16.127 23.646,16.146 24.176,15.811 C26.819,14.139 29.683,12.953 32.687,12.286 C33.302,12.148 33.772,11.651 33.874,11.031 L35.173,3.090 L41.819,3.090 L43.212,11.037 C43.320,11.650 43.788,12.139 44.397,12.274 C47.431,12.946 50.315,14.140 52.969,15.826 C53.501,16.165 54.182,16.146 54.697,15.777 L61.244,11.078 L65.944,15.770 L61.297,22.382 C60.937,22.892 60.923,23.569 61.259,24.097 C62.948,26.736 64.149,29.613 64.823,32.647 C64.960,33.261 65.459,33.730 66.081,33.832 L74.027,35.128 L74.027,41.766 ZM38.561,16.950 C26.658,16.950 16.974,26.620 16.974,38.507 C16.974,50.395 26.658,60.068 38.561,60.068 C50.465,60.068 60.149,50.395 60.149,38.507 C60.149,26.620 50.465,16.950 38.561,16.950 ZM38.561,56.988 C28.359,56.988 20.058,48.697 20.058,38.507 C20.058,28.318 28.359,20.029 38.561,20.029 C48.765,20.029 57.065,28.318 57.065,38.507 C57.065,48.697 48.765,56.988 38.561,56.988 Z" class="cls-1"/>
</svg>
