<svg xmlns="http://www.w3.org/2000/svg" xmlns:xlink="http://www.w3.org/1999/xlink" preserveAspectRatio="xMidYMid" width="66.09" height="66" viewBox="0 0 66.09 66">
  <defs>
    <style>
      .cls-1 {
        fill: #000;
        fill-rule: evenodd;
      }
    </style>
  </defs>
  <path d="M66.082,53.301 L53.374,65.992 L32.487,45.133 L34.396,43.227 L53.374,62.180 L62.265,53.301 L61.389,52.426 L59.644,54.170 L57.735,52.263 L59.480,50.520 L57.339,48.383 L54.244,51.474 L52.335,49.567 L55.431,46.476 L53.290,44.338 L51.544,46.081 L49.635,44.175 L51.381,42.432 L49.240,40.294 L46.145,43.385 L44.236,41.478 L47.331,38.387 L45.190,36.250 L43.445,37.993 L41.536,36.087 L44.236,33.390 L44.241,33.395 L45.195,32.443 L66.082,53.301 ZM61.058,14.311 L14.406,60.898 C14.239,61.065 14.031,61.185 13.802,61.247 L3.693,63.955 C3.577,63.986 3.459,64.001 3.343,64.001 C2.989,64.001 2.645,63.862 2.388,63.606 C2.047,63.265 1.914,62.769 2.039,62.304 L4.751,52.208 C4.812,51.979 4.932,51.771 5.100,51.604 L22.034,34.694 L0.000,12.691 L12.708,-0.002 L34.742,22.003 L51.751,5.018 L51.758,5.024 C51.752,5.030 52.871,3.912 52.871,3.912 C55.437,1.351 59.597,1.348 62.165,3.912 C64.729,6.474 64.729,10.628 62.163,13.191 C62.163,13.191 61.044,14.309 61.050,14.303 L53.660,6.925 L7.264,53.254 L7.260,53.269 L12.740,58.739 L12.753,58.737 L59.149,12.405 L61.058,14.311 ZM23.942,32.788 L31.088,25.652 L29.387,23.954 L31.132,22.211 L28.991,20.073 L25.896,23.164 L23.987,21.257 L27.082,18.166 L24.942,16.029 L23.196,17.772 L21.287,15.866 L23.033,14.122 L20.892,11.984 L17.796,15.076 L15.888,13.169 L18.983,10.078 L16.842,7.940 L15.096,9.683 L13.188,7.777 L14.934,6.034 L12.708,3.811 L3.818,12.691 L23.942,32.788 Z" class="cls-1"/>
</svg>
