<svg xmlns="http://www.w3.org/2000/svg" xmlns:xlink="http://www.w3.org/1999/xlink" preserveAspectRatio="xMidYMid" width="73" height="73" viewBox="0 0 73 73">
  <defs>
    <style>
      .cls-1 {
        fill: #000;
        fill-rule: evenodd;
      }
    </style>
  </defs>
  <path d="M72.490,0.508 C71.986,0.005 71.227,-0.142 70.574,0.140 L1.049,30.039 C0.428,30.305 0.018,30.909 -0.002,31.585 C-0.021,32.262 0.353,32.887 0.958,33.190 L26.851,46.136 L39.819,72.041 C40.114,72.631 40.717,73.001 41.373,73.001 C41.391,73.001 41.407,73.001 41.424,73.001 C42.100,72.981 42.702,72.570 42.971,71.949 L72.858,2.423 C73.139,1.770 72.993,1.010 72.490,0.508 ZM5.860,31.754 L63.628,6.911 L27.810,42.729 L5.860,31.754 ZM41.253,67.140 L30.266,45.191 L66.089,9.366 L41.253,67.140 Z" class="cls-1"/>
</svg>
