<svg xmlns="http://www.w3.org/2000/svg" xmlns:xlink="http://www.w3.org/1999/xlink" preserveAspectRatio="xMidYMid" width="73" height="74" viewBox="0 0 73 74">
  <defs>
    <style>
      .cls-1 {
        fill: #000;
        fill-rule: evenodd;
      }
    </style>
  </defs>
  <path d="M72.902,22.450 C72.381,17.260 69.732,12.008 65.445,7.667 C60.574,2.723 54.711,0.000 48.937,0.000 C43.905,0.000 39.214,2.059 35.373,5.954 C31.005,10.375 29.007,15.805 29.593,21.658 C29.940,25.076 31.206,28.518 33.252,31.709 L13.954,51.274 L11.488,48.779 C10.674,47.951 9.786,47.532 8.851,47.532 C8.850,47.532 8.850,47.532 8.850,47.532 C7.189,47.532 5.938,48.801 4.612,50.145 L2.604,52.186 C1.270,53.533 0.010,54.806 0.008,56.495 C0.007,57.445 0.419,58.344 1.235,59.172 L3.700,61.670 L1.764,63.632 C0.631,64.779 0.007,66.306 0.007,67.929 C0.007,69.550 0.631,71.077 1.765,72.227 C2.933,73.408 4.466,73.997 6.000,73.997 C7.535,73.997 9.070,73.408 10.239,72.226 L41.719,40.308 C45.464,42.784 49.534,44.108 53.562,44.108 C58.596,44.108 63.287,42.048 67.128,38.155 C71.496,33.730 73.492,28.300 72.902,22.450 ZM3.300,57.078 C3.067,56.843 2.927,56.625 2.928,56.498 C2.928,56.037 3.932,55.023 4.665,54.283 L6.678,52.238 C7.405,51.502 8.399,50.492 8.849,50.492 C8.974,50.492 9.188,50.633 9.423,50.873 L11.889,53.368 L5.765,59.576 L3.300,57.078 ZM8.177,70.132 C6.977,71.342 5.027,71.345 3.828,70.132 C3.247,69.544 2.927,68.761 2.927,67.929 C2.927,67.096 3.247,66.314 3.828,65.726 L34.993,34.131 C35.631,34.926 36.319,35.698 37.055,36.446 C37.794,37.195 38.555,37.893 39.335,38.539 L8.177,70.132 ZM65.063,36.060 C61.781,39.388 57.804,41.148 53.562,41.148 C48.566,41.148 43.438,38.735 39.121,34.352 C35.308,30.490 32.956,25.874 32.497,21.357 C32.003,16.420 33.711,11.819 37.438,8.047 C40.719,4.719 44.696,2.960 48.937,2.960 C53.930,2.960 59.060,5.374 63.379,9.760 C67.195,13.622 69.544,18.235 69.996,22.751 C70.495,27.685 68.790,32.286 65.063,36.060 ZM59.815,13.374 C56.700,10.208 53.025,8.464 49.467,8.464 C46.459,8.464 43.741,9.672 41.387,12.053 C38.761,14.716 37.556,17.949 37.902,21.406 C38.230,24.631 39.928,27.946 42.684,30.739 C45.808,33.902 49.483,35.644 53.032,35.644 C56.041,35.644 58.760,34.436 61.113,32.052 C63.739,29.391 64.943,26.157 64.595,22.700 C64.268,19.470 62.570,16.158 59.815,13.374 ZM59.048,29.958 C57.263,31.767 55.239,32.684 53.032,32.684 C50.262,32.684 47.320,31.249 44.748,28.646 C42.466,26.332 41.066,23.653 40.808,21.105 C40.553,18.565 41.466,16.159 43.450,14.147 C45.236,12.340 47.261,11.424 49.467,11.424 C52.243,11.424 55.185,12.858 57.751,15.467 C60.032,17.773 61.432,20.449 61.690,23.002 C61.947,25.542 61.033,27.948 59.048,29.958 Z" class="cls-1"/>
</svg>
